<svg xmlns="http://www.w3.org/2000/svg" xmlns:xlink="http://www.w3.org/1999/xlink" version="1.1" viewBox="0 0 96 84">
<g id="surface1">
<path style="stroke:none;fill-rule:evenodd;fill:#5e3bee;fill-opacity:1;" d="M 63.734375 0.941406 C 63.539062 1.457031 63.394531 2.113281 63.394531 2.394531 C 63.394531 2.679688 63.226562 3.511719 63 4.25 C 62.460938 5.992188 62.007812 7.820312 61.699219 9.417969 C 61.414062 10.898438 60.933594 12.8125 60.484375 14.269531 C 60.3125 14.808594 60.085938 15.835938 59.972656 16.550781 C 59.71875 18.003906 59.292969 19.832031 58.699219 21.683594 C 58.472656 22.398438 58.300781 23.28125 58.300781 23.652344 C 58.300781 24.023438 58.128906 24.910156 57.90625 25.648438 C 57.371094 27.394531 56.886719 29.332031 56.71875 30.386719 C 56.628906 30.84375 56.40625 31.871094 56.179688 32.667969 C 55.699219 34.496094 55.1875 36.636719 54.878906 38.089844 C 54.765625 38.71875 54.507812 39.800781 54.339844 40.519531 C 53.347656 44.457031 53.007812 46.195312 52.667969 49.132812 C 52.554688 50.1875 52.300781 51.214844 52.128906 51.445312 C 51.960938 51.644531 51.792969 52.644531 51.734375 53.644531 C 51.652344 55.324219 51.59375 55.496094 51.027344 55.582031 C 50.660156 55.636719 50.378906 55.808594 50.378906 55.980469 C 50.378906 56.152344 49.953125 56.808594 49.445312 57.464844 C 47.859375 59.40625 47.746094 59.773438 47.515625 64.480469 C 47.40625 66.910156 47.234375 69.476562 47.121094 70.191406 C 46.8125 72.132812 44.945312 75.894531 43.699219 77.09375 C 42.371094 78.351562 38.914062 80.230469 36.765625 80.863281 C 35.066406 81.347656 32.660156 81.144531 31.1875 80.375 C 30.765625 80.148438 29.800781 79.664062 29.066406 79.292969 C 24.878906 77.207031 22.472656 72.242188 22.613281 65.96875 C 22.667969 64.082031 23.292969 63.628906 26.007812 63.628906 C 27.707031 63.628906 28.332031 63.742188 28.613281 64.082031 C 28.839844 64.367188 29.066406 65.824219 29.179688 68.019531 C 29.292969 70.019531 29.574219 71.929688 29.800781 72.5 C 30.425781 73.988281 32.121094 75.78125 33.539062 76.46875 C 35.179688 77.269531 36.199219 76.949219 38.007812 75.097656 C 40.105469 72.929688 40.1875 72.585938 40.1875 64.996094 L 40.1875 58.378906 L 39.484375 57.324219 C 39.085938 56.75 38.207031 55.835938 37.554688 55.324219 L 36.371094 54.355469 L 31.839844 54.210938 C 26.886719 54.042969 26.152344 53.8125 24.820312 52.242188 C 24.425781 51.757812 23.800781 50.617188 23.433594 49.730469 L 22.78125 48.074219 L 22.699219 26.90625 C 22.613281 5.933594 22.613281 5.738281 23.207031 5.136719 C 23.628906 4.707031 24.167969 4.566406 25.386719 4.507812 C 27.765625 4.449219 28.105469 4.507812 28.726562 5.164062 C 29.265625 5.707031 29.292969 6.21875 29.460938 24.625 C 29.574219 38.691406 29.71875 43.800781 29.972656 44.625 C 30.371094 45.851562 32.515625 48.332031 33.734375 48.960938 C 35.207031 49.730469 36.113281 49.476562 37.839844 47.851562 C 40.5 45.335938 40.300781 46.964844 40.472656 25.082031 C 40.640625 2.511719 40.300781 4.566406 43.871094 4.566406 C 45.621094 4.566406 46.21875 4.679688 46.726562 5.105469 L 47.40625 5.648438 L 47.574219 26.304688 C 47.746094 43.398438 47.832031 47.363281 48.226562 49.386719 C 48.679688 51.929688 49.726562 55.070312 50.09375 55.070312 C 50.515625 55.070312 50.660156 49.363281 50.914062 25.824219 C 51.054688 12.957031 51.199219 2.167969 51.253906 1.855469 C 51.371094 1.285156 51.199219 1.285156 44.234375 1.199219 L 37.074219 1.144531 L 37.074219 23.136719 C 37.074219 44.910156 37.074219 45.136719 36.484375 45.964844 C 35.832031 46.90625 35.234375 46.992188 34.300781 46.335938 C 32.800781 45.28125 32.800781 45.539062 32.832031 22.570312 L 32.859375 1.285156 L 19.21875 1.285156 L 19.246094 24.480469 C 19.246094 44.023438 19.332031 47.878906 19.667969 48.875 C 19.894531 49.53125 20.09375 50.417969 20.09375 50.816406 C 20.09375 51.242188 20.292969 51.730469 20.515625 51.929688 C 20.746094 52.128906 20.945312 52.472656 20.945312 52.699219 C 20.945312 53.183594 21.707031 54.414062 22.5 55.238281 C 22.8125 55.550781 23.945312 56.238281 25.015625 56.75 L 26.945312 57.664062 L 31.894531 57.605469 C 34.585938 57.582031 36.878906 57.636719 36.960938 57.722656 C 37.046875 57.804688 37.105469 61.058594 37.105469 64.96875 C 37.074219 71.042969 36.992188 72.1875 36.59375 72.957031 C 36.167969 73.757812 35.945312 73.898438 35.039062 73.898438 C 34.300781 73.898438 33.765625 73.699219 33.3125 73.269531 C 32.71875 72.644531 32.6875 72.417969 32.628906 66.539062 C 32.605469 63.167969 32.546875 60.402344 32.492188 60.320312 C 32.433594 60.261719 29.378906 60.175781 25.726562 60.144531 L 19.105469 60.089844 L 19.21875 65.339844 C 19.273438 69.019531 19.414062 70.902344 19.699219 71.585938 C 19.925781 72.101562 20.09375 72.898438 20.09375 73.332031 C 20.09375 73.757812 20.292969 74.269531 20.515625 74.46875 C 20.746094 74.667969 20.945312 75.011719 20.945312 75.210938 C 20.945312 76.636719 24.59375 80.949219 26.628906 81.917969 C 29.152344 83.113281 30.371094 83.316406 34.699219 83.316406 C 39.820312 83.316406 41.515625 82.886719 44.574219 80.886719 C 45.621094 80.207031 48.085938 77.582031 48.113281 77.152344 C 48.113281 76.980469 48.3125 76.667969 48.539062 76.46875 C 48.765625 76.269531 48.960938 75.894531 48.960938 75.613281 C 48.960938 75.324219 49.160156 74.957031 49.386719 74.757812 C 49.613281 74.554688 49.8125 74.101562 49.8125 73.699219 C 49.8125 73.332031 50.007812 72.613281 50.265625 72.132812 C 50.628906 71.417969 50.746094 70.050781 50.800781 65.113281 C 50.859375 61.742188 51 58.917969 51.140625 58.804688 C 51.253906 58.664062 54.054688 58.664062 57.3125 58.804688 C 64.160156 59.035156 64.246094 59.007812 64.246094 56.863281 C 64.246094 56.179688 64.386719 55.324219 64.554688 55.011719 C 64.726562 54.699219 64.984375 53.757812 65.09375 52.957031 C 65.378906 51.332031 65.800781 49.5625 66.394531 47.621094 C 66.621094 46.878906 66.792969 45.9375 66.792969 45.539062 C 66.792969 45.113281 66.992188 44.3125 67.21875 43.738281 C 67.445312 43.199219 67.640625 42.371094 67.640625 41.945312 C 67.640625 41.511719 67.839844 40.6875 68.066406 40.144531 C 68.292969 39.574219 68.492188 38.71875 68.492188 38.230469 C 68.492188 37.75 68.628906 37.0625 68.800781 36.75 C 68.972656 36.4375 69.226562 35.492188 69.339844 34.695312 C 69.621094 33.070312 70.046875 31.300781 70.640625 29.363281 C 70.871094 28.617188 71.039062 27.707031 71.039062 27.304688 C 71.039062 26.933594 71.234375 26.136719 71.460938 25.59375 C 71.6875 25.023438 71.886719 24.167969 71.886719 23.679688 C 71.886719 23.199219 72.027344 22.511719 72.199219 22.199219 C 72.371094 21.886719 72.621094 20.945312 72.734375 20.144531 C 73.015625 18.519531 73.445312 16.75 74.039062 14.808594 C 74.265625 14.066406 74.433594 13.125 74.433594 12.726562 C 74.433594 12.300781 74.628906 11.5 74.859375 10.925781 C 75.085938 10.386719 75.28125 9.558594 75.28125 9.132812 C 75.28125 8.699219 75.484375 7.875 75.707031 7.332031 C 75.933594 6.761719 76.128906 5.933594 76.128906 5.480469 C 76.128906 5.019531 76.300781 4.195312 76.527344 3.679688 C 76.726562 3.136719 77.007812 2.113281 77.09375 1.339844 L 77.292969 0 L 73.640625 0 L 73.445312 1.738281 C 73.332031 2.679688 73.074219 4.105469 72.847656 4.9375 C 72.621094 5.761719 72.054688 8.160156 71.574219 10.269531 C 71.121094 12.382812 70.1875 16.433594 69.507812 19.261719 C 68.832031 22.082031 67.984375 25.621094 67.640625 27.105469 C 66.652344 31.445312 65.40625 36.804688 64.953125 38.664062 C 63.652344 44.054688 62.832031 47.738281 62.832031 48.164062 C 62.832031 48.417969 62.660156 49.132812 62.433594 49.789062 C 62.234375 50.417969 61.839844 51.675781 61.585938 52.554688 C 60.847656 55.097656 60.371094 55.355469 56.152344 55.355469 C 53.207031 55.355469 52.640625 55.292969 52.640625 54.925781 C 52.640625 54.667969 53.121094 53.5 53.746094 52.269531 C 55.414062 48.933594 56.121094 46.648438 58.128906 38.460938 C 59.886719 31.300781 60.339844 29.386719 62.6875 19.542969 C 63.253906 17.175781 64.015625 13.980469 64.386719 12.414062 C 65.914062 6.019531 66.28125 4.335938 66.679688 2.339844 C 66.90625 1.167969 67.074219 0.167969 67.074219 0.113281 C 67.074219 0.0546875 66.394531 0 65.574219 0 C 64.128906 0 64.074219 0.03125 63.734375 0.941406 Z M 63.734375 0.941406 "/>
<path style="stroke:none;fill-rule:evenodd;fill:#161513;fill-opacity:1;" d="M 5.347656 22.996094 C 5.066406 23.3125 4.8125 23.710938 4.8125 23.910156 C 4.8125 24.082031 4.246094 25.480469 3.539062 27.019531 C 2.09375 30.160156 1.699219 31.011719 0.992188 32.667969 C 0.707031 33.300781 0.371094 34.039062 0.253906 34.292969 C -0.0859375 34.980469 -0.0546875 35.667969 0.28125 35.667969 C 0.453125 35.667969 0.566406 35.894531 0.566406 36.148438 C 0.566406 36.4375 0.765625 37.035156 0.992188 37.492188 C 1.21875 37.917969 1.414062 38.460938 1.414062 38.632812 C 1.414062 38.832031 1.78125 39.746094 2.265625 40.660156 C 2.71875 41.574219 3.113281 42.542969 3.113281 42.824219 C 3.113281 43.082031 3.3125 43.457031 3.539062 43.65625 C 3.765625 43.855469 3.960938 44.199219 3.960938 44.394531 C 3.960938 44.625 4.074219 45.023438 4.246094 45.308594 C 4.386719 45.566406 4.640625 46.136719 4.8125 46.566406 L 5.09375 47.363281 L 10.585938 47.363281 C 13.613281 47.363281 16.160156 47.277344 16.246094 47.136719 C 16.359375 46.964844 15.339844 44.457031 14.6875 43.367188 C 14.546875 43.144531 14.347656 42.742188 14.265625 42.511719 C 14.066406 41.945312 13.585938 40.886719 12.027344 37.574219 C 10.8125 34.980469 10.726562 34.726562 11.152344 34.269531 C 11.40625 33.980469 11.605469 33.667969 11.605469 33.523438 C 11.605469 33.125 12.765625 30.84375 13.046875 30.644531 C 13.1875 30.558594 13.300781 30.1875 13.300781 29.84375 C 13.300781 29.476562 13.5 29.019531 13.726562 28.820312 C 13.953125 28.617188 14.152344 28.246094 14.152344 27.988281 C 14.152344 27.730469 14.347656 27.277344 14.574219 26.992188 C 14.800781 26.675781 15 26.222656 15 25.9375 C 15 25.679688 15.199219 25.308594 15.425781 25.105469 C 15.652344 24.910156 15.847656 24.539062 15.847656 24.253906 C 15.847656 23.96875 16.046875 23.597656 16.273438 23.394531 C 17.292969 22.542969 16.527344 22.398438 11.207031 22.398438 C 6.226562 22.398438 5.886719 22.425781 5.347656 22.996094 Z M 10.386719 26.707031 C 10.554688 27.191406 10.332031 27.988281 9.339844 30.53125 C 9 31.386719 8.546875 32.839844 8.320312 33.753906 C 7.894531 35.410156 7.894531 35.410156 9.085938 38.949219 C 9.734375 40.917969 10.1875 42.683594 10.074219 42.96875 C 9.933594 43.339844 9.652344 43.398438 8.746094 43.285156 C 8.121094 43.199219 7.414062 42.96875 7.160156 42.742188 C 6.59375 42.285156 3.394531 35.722656 3.394531 35.039062 C 3.394531 34.292969 6.679688 27.960938 7.527344 27.074219 C 8.433594 26.136719 10.074219 25.90625 10.386719 26.707031 Z M 10.386719 26.707031 "/>
<path style="stroke:none;fill-rule:evenodd;fill:#161513;fill-opacity:1;" d="M 79.300781 22.769531 C 79.246094 22.96875 79.445312 23.511719 79.78125 23.96875 C 80.09375 24.425781 80.378906 24.992188 80.378906 25.195312 C 80.378906 25.425781 80.574219 25.761719 80.800781 25.964844 C 81.027344 26.164062 81.226562 26.507812 81.226562 26.738281 C 81.226562 27.105469 81.652344 28.105469 82.386719 29.386719 C 82.527344 29.617188 82.726562 30.019531 82.8125 30.242188 C 82.894531 30.472656 83.152344 31.042969 83.378906 31.472656 C 83.574219 31.925781 83.773438 32.441406 83.773438 32.667969 C 83.773438 32.867188 83.945312 33.183594 84.167969 33.355469 C 84.992188 34.070312 84.960938 35.292969 84.085938 36.804688 C 83.832031 37.238281 83.152344 38.746094 82.414062 40.519531 C 82.1875 41.058594 81.878906 41.714844 81.734375 41.945312 C 81.621094 42.167969 81.425781 42.570312 81.339844 42.800781 C 80.886719 43.96875 80.039062 45.652344 79.78125 45.792969 C 79.640625 45.910156 79.527344 46.28125 79.527344 46.679688 L 79.527344 47.363281 L 85.105469 47.304688 L 90.679688 47.222656 L 91.015625 46.507812 C 91.332031 45.851562 91.726562 44.910156 92.660156 42.710938 C 93.453125 40.886719 94.046875 39.519531 94.273438 39.0625 C 94.386719 38.804688 94.585938 38.117188 94.699219 37.519531 C 94.8125 36.835938 95.066406 36.40625 95.40625 36.324219 C 96.167969 36.121094 96.167969 34.070312 95.40625 33.8125 C 95.121094 33.726562 94.8125 33.300781 94.726562 32.867188 C 94.527344 31.757812 93.820312 29.988281 93.453125 29.617188 C 93.253906 29.417969 93.113281 29.074219 93.113281 28.820312 C 93.113281 28.5625 92.914062 28.105469 92.6875 27.792969 C 92.460938 27.507812 92.265625 27.050781 92.265625 26.792969 C 92.265625 26.535156 92.066406 26.164062 91.839844 25.964844 C 91.613281 25.761719 91.414062 25.308594 91.414062 24.964844 C 91.414062 24.625 91.246094 24.167969 91.015625 23.96875 C 90.792969 23.792969 90.566406 23.367188 90.507812 23.054688 C 90.425781 22.480469 90.253906 22.457031 84.933594 22.425781 C 80.574219 22.398438 79.445312 22.457031 79.300781 22.769531 Z M 88.105469 26.878906 C 88.5 27.25 89.492188 28.820312 90.28125 30.386719 C 91.105469 31.957031 92.007812 33.554688 92.292969 33.925781 C 93.054688 34.867188 92.972656 35.464844 91.871094 37.007812 C 91.359375 37.777344 90.507812 39.261719 90 40.316406 C 88.953125 42.511719 88.046875 43.367188 86.832031 43.367188 C 85.585938 43.367188 85.300781 42.285156 86.066406 40.574219 C 87 38.433594 87.792969 35.324219 87.652344 34.238281 C 87.59375 33.699219 87 31.84375 86.320312 30.160156 C 85.667969 28.476562 85.21875 26.90625 85.300781 26.675781 C 85.554688 25.992188 87.3125 26.136719 88.105469 26.878906 Z M 88.105469 26.878906 "/>
</g>
</svg>